<svg width="378" height="408" viewBox="0 0 378 408" fill="none" xmlns="http://www.w3.org/2000/svg">
<path d="M172.296 180.536C173.938 178.735 173.718 168.687 174.298 165.575C175.362 159.867 179.491 152.314 184.268 149.016C187.49 146.792 192.746 145.558 196.446 144.036C198.783 143.075 203.097 140.343 205.196 139.801C214.309 137.447 225.811 143.285 234.296 144.828L234.586 144.879C226.765 152.855 228.368 161.129 233.03 170.636C233.256 171.099 232.658 172.701 232.444 173.162L231.978 173.351C224.954 167.054 214.428 166.69 208.746 158.028C208.071 157 206.539 153.715 205.865 153.245C205.249 154.159 205.479 154.417 205.453 155.758C209.017 161.992 212.133 168.664 219.924 170.951C225.077 172.464 226.677 171.152 230.891 175.394C229.341 178.363 225.105 185.216 225.955 188.019C227.968 190.71 234.132 188.536 237.039 187.833C238.532 187.414 239.641 187.217 241.146 186.953C242.643 189.595 245.622 194.726 247.392 196.979C249.518 198.855 249.934 200.248 251.084 202.785L253.94 207.144L255.711 209.156C256.347 209.778 257.61 210.945 258.136 211.574L258.341 211.577C259.667 210.285 259.585 209.634 260.413 207.907C264.495 212.298 268.218 215.629 272.769 219.492C278.48 224.341 287.601 230.828 291.173 237.42C292.486 237.247 294.181 235.565 294.332 234.296C295.677 231.924 298.279 230.573 299.835 228.539C304.654 222.245 310.033 216.221 314.613 209.772C315.467 208.196 318.257 204.591 319.429 202.99L321.064 200.621C320.727 196.156 322.09 195.686 325.801 193.776C327.659 192.774 329.744 195.641 332.138 195.676L332.906 195.832C333.577 196.902 332.809 197.844 333.691 197.925C341.552 198.643 340.9 202.231 339.515 208.506C349.354 201.765 363.336 203.775 369.755 214.158C377.664 226.954 377.336 242.736 377.512 257.246C377.853 271.459 376.854 283.742 373.975 297.634C372.643 304.078 372.678 311.567 370.983 318.083C370.164 321.825 368.753 329.626 367.374 333.206C363.688 342.768 357.578 357.914 348.951 363.753C347.285 364.88 345.058 366.108 343.329 367.006C348.019 369.267 352.743 371.453 357.499 373.573C361.074 375.125 368.93 377.884 371.052 380.822C371.263 382.866 369.081 383.799 367.415 384.526C360.381 387.606 352.463 389.452 345.401 392.214C335.036 396.274 325.394 399.508 314.484 401.983C307.517 403.564 300.087 406.758 292.839 407.111C287.239 407.221 275.157 394.589 270.546 390.976C268.124 389.083 262.911 385.307 261.018 383.345C260.564 382.479 257.846 382.189 256.838 381.985C254.3 375.783 250.621 376.284 246.731 372.725C238.995 375.979 235.373 376.735 227.174 377.427C226.535 380.262 225.855 381.421 223.142 382.608C221.74 382.744 221.362 382.744 219.963 382.589C216.864 381.424 211.43 379.522 210.512 376.079C210.951 372.88 219.485 366.619 222.428 366.269L222.792 366.575C222.109 369.129 216.015 374.064 213.859 375.938C216.688 376.955 220.196 379.761 222.661 378.993C224.472 377.289 221.982 376.174 222.507 374.054C223.712 373.025 228.554 373.371 230.412 373.409C237.417 373.56 242.362 369.645 248.64 368.137L249.087 368.033C246.885 362.786 244.202 347.558 244.214 341.952C240.639 341.357 237.156 339.76 233.682 339.008C225.817 337.304 218.042 334.485 210.257 332.747C210.146 334.784 209.845 336.636 209.548 338.652C212.366 338.998 216.839 340.123 218.895 342.107C219.328 343.089 219.252 343.096 219.049 344.116C217.439 345.927 212.063 345.313 208.959 346.251C205.884 347.184 205.567 347.212 202.443 348.698C201.132 350.604 199.581 352.657 198.17 354.497C196.842 356.226 194.716 360.153 192.417 359.753C190.159 356.811 196.434 349.839 198.342 347.414C195.752 348.525 193.911 349.684 191.126 350.629C184.778 347.127 177.618 347.798 186.094 339.962C184.367 340.239 179.545 340.907 178.313 341.7C178.289 342.409 178.307 342.85 178.343 343.546C178.058 343.675 148.44 342.104 145.243 342.122C145.229 344.576 145.265 347.029 145.351 349.479C148.806 350.113 158.521 349.102 159.633 352.682C158.412 355.567 151.735 355.687 148.932 356.503C142.986 358.235 137.652 359.457 131.444 359.778C129.871 360.181 127.401 360.046 125.693 360.033C126.603 361.639 127.718 363.759 128.843 365.16C128.907 366.395 128.782 367.031 129.523 367.919C129.834 368.048 130.422 368.326 130.755 368.392C130.832 369.74 133.229 372.593 134.278 373.261C134.108 374.451 133.968 374.713 134.451 375.742C135.423 376.571 135.849 376.489 137.195 376.473L135.88 376.867L135.624 377.44C136.582 379.16 139.721 379.468 141.521 379.534C142.167 381.292 142.472 382.148 144.4 382.57C141.342 383.037 138.488 384.514 135.326 384.766C123.541 385.71 112.005 384.155 100.276 383.547C93.2872 383.181 81.5152 383.222 75.0691 381.783C73.5969 381.456 72.6958 380.92 71.5606 379.928C65.1774 374.357 62.1115 366.175 57.3889 359.362C53.0392 353.089 48.0453 347.335 43.7053 341.074C40.9837 337.146 38.1893 333.21 35.6604 329.159C33.8317 326.231 32.1897 323.157 30.2565 320.297C27.9027 316.814 25.0157 313.705 22.7029 310.191C20.1529 306.317 18.0152 302.178 15.422 298.324C13.2664 295.121 -0.0580788 278.318 0.000190536 276.303C0.0833425 273.412 6.60353 273.582 8.61492 273.409C16.2989 272.753 23.5322 271.201 31.1085 269.888C40.132 268.322 49.3272 267.34 58.2302 265.129C64.7431 263.513 71.1329 261.006 77.4326 258.694C80.153 257.696 84.9638 256.257 86.9229 254.185C87.0325 254.068 87.1352 253.945 87.2414 253.826C88.2521 253.249 88.98 252.411 89.8125 251.583L88.6011 250.172C87.8574 249.593 87.1444 248.141 86.7425 247.319C91.199 246.579 94.9228 246.755 99.3683 246.412C102.865 246.399 107.68 244.582 110.983 244.569C116.076 244.554 119.356 244.377 124.425 243.631C124.445 242.396 124.392 241.877 124.724 240.705C124.806 239.196 124.56 237.215 126.207 236.715C127.791 238.415 126.512 243.766 128.161 246.815C136.731 250.421 126.908 234.331 132.812 233.307C135.391 235.275 132.655 246.065 136.752 245.788C137.038 245.357 137.773 236.715 137.973 235.247C134.335 231.468 133.87 228.041 132.176 223.267C130.985 219.911 129.712 216.683 128.88 213.202C130.629 211.162 132.84 209.933 135.108 208.536C136.307 207.914 136.619 207.597 137.875 207.775C139.723 208.687 140.643 210.684 141.19 212.613C142.265 214.821 143.381 217.055 144.422 219.273C144.485 217.325 144.503 215.023 144.659 213.111C144.513 206.998 144.222 206.349 150.322 204.455L152.541 203.531C157.936 203.916 156.267 208.824 156.655 212.871C157.085 217.761 157.57 221.964 157.055 226.891C160.335 226.341 164.792 225.66 167.932 226.884C170.528 221.578 175.923 214.789 177.253 209.799C176.513 208.36 175.272 207.72 173.918 206.986C167.315 203.729 165.645 197.901 168.015 191.375C169.316 187.793 170.458 183.891 172.296 180.536Z" fill="black"/>
<path d="M237.039 187.833C238.532 187.414 239.641 187.217 241.146 186.953C242.642 189.595 245.622 194.726 247.392 196.979C249.518 198.855 249.934 200.248 251.084 202.785L253.94 207.144L255.711 209.156C256.347 209.779 257.61 210.945 258.136 211.574L258.341 211.577C259.667 210.285 259.585 209.634 260.413 207.907C264.495 212.298 268.218 215.629 272.769 219.492C278.48 224.341 287.601 230.829 291.173 237.42C292.486 237.247 294.181 235.565 294.332 234.296C295.677 231.925 298.279 230.574 299.835 228.539C304.654 222.246 310.033 216.221 314.613 209.772C315.467 208.196 318.257 204.591 319.429 202.99L321.064 200.621C320.727 196.156 322.09 195.686 325.801 193.776C327.659 192.775 329.744 195.641 332.138 195.676C328.32 199.791 334.825 200.364 336.286 202.148C336.696 203.769 336.305 207.23 336.239 209.145C337.253 209.879 338.519 210.927 339.656 211.318C342.752 209.191 343.622 208.829 347.316 208.312C371.421 204.907 372.819 235.95 372.769 252.512C372.734 264.405 373.276 276.703 370.775 288.403C368.501 299.048 368.174 309.772 365.666 320.376C364.674 324.577 363.896 328.832 362.441 332.917C359.345 340.976 353.109 355.621 345.839 360.194C332.176 368.792 314.216 371.459 298.31 371.053C295 370.968 289.463 371.343 286.382 370.663C282.152 369.73 279.371 368.153 274.747 368.348C272.476 368.442 268.114 369.324 266.35 369.151C262.057 368.732 258.52 368.222 254.142 368.14C251.55 361.331 248.696 348.573 248.98 341.291C253.562 340.68 265.752 340.249 268.281 336.375C272.968 329.201 279.081 330.079 286.763 328.448C294.181 326.87 303.545 322.98 310.792 321.796C311.066 323.286 310.014 325.887 311.7 326.596C315.829 328.335 325.067 325.062 323.07 319.315C321.19 313.898 317.126 317.393 319.952 309.995C322.61 303.035 323.675 295.272 324.544 287.902C324.821 285.512 327.407 281.32 325.142 279.685C323.842 280.205 323.479 280.961 322.909 282.359C320.673 287.83 320.39 293.978 318.934 299.669C317.467 305.41 315.429 310.937 313.923 316.663C310.717 317.614 307.703 318.376 304.462 319.176C302.024 316.751 300.178 312.909 298.307 310.049C287.752 293.93 289.028 275.368 285.633 257.24C285.39 255.955 285.248 254.607 284.067 254.059C282.464 256.248 284.376 263.765 284.527 266.795C285.522 286.935 287.711 303.939 300.581 320.669C291.343 322.634 280.574 324.848 271.355 327.185C267.588 328.838 266.051 333.389 262.193 334.807C257.547 336.514 250.92 334.992 246.81 337.587C243.638 339.587 236.488 335.566 232.68 334.536C237.871 332.826 246.337 329.714 251.128 327.327C257.837 323.988 258.381 319.787 266.838 318.222C266.092 311.041 267.635 306.399 268.171 299.527C268.713 292.557 269.352 285.376 269.843 278.419C270.861 264.071 267.352 248.853 273.462 235.244C275.002 234.088 275.765 233.547 277.447 232.605C277.61 231.128 277.891 231.106 277.232 230.271C275.021 229.92 273.418 231.241 271.667 232.419C269.894 233.613 269.645 234.504 268.942 236.416L267.393 239.94L266.914 239.518C265.049 240.321 262.319 242.749 259.377 243.946C253.188 246.456 247.156 244.365 241.578 244.821C245.039 239.6 244.677 239.14 243.606 232.961C248.904 225.237 247.046 219.766 240.035 214.209L242.368 212.648C243.436 206.573 244.441 198.128 237.458 195.353C237.704 194.6 237.924 193.839 238.12 193.071C238.529 191.406 238.623 190.652 237.742 189.233L237.751 188.165L237.039 187.833Z" fill="white"/>
<path d="M237.039 187.833C238.532 187.414 239.641 187.217 241.146 186.953C242.643 189.595 245.622 194.726 247.392 196.979C249.518 198.855 249.934 200.248 251.084 202.785L253.941 207.144L255.711 209.156C256.347 209.779 257.61 210.945 258.136 211.574L258.341 211.577C259.667 210.285 259.585 209.634 260.413 207.907C264.495 212.298 268.218 215.629 272.769 219.492C278.48 224.341 287.601 230.829 291.173 237.42C292.486 237.247 294.181 235.565 294.332 234.296C295.677 231.925 298.279 230.574 299.835 228.539C304.654 222.246 310.033 216.221 314.613 209.772C315.467 208.196 318.257 204.591 319.429 202.99L321.064 200.621C320.727 196.156 322.09 195.686 325.801 193.776C327.659 192.775 329.744 195.641 332.138 195.676C328.321 199.791 334.825 200.364 336.286 202.148C336.696 203.769 336.305 207.23 336.239 209.145C331.499 214.108 331.549 226.996 330.878 233.474C330.525 236.898 329.058 240.5 328.538 243.921C327.87 250.909 323.294 264.845 324.342 271.362C320.238 271.069 302.446 277.459 296.946 278.835C297.841 274.08 302.37 264.59 304.43 260.021C305.457 257.747 307.092 255.164 307.788 252.771L307.369 252.03C305.205 254.648 303.734 255.929 300.068 255.608C297.129 255.353 292.332 253.646 290.474 251.36C290.483 251.432 278.883 236.573 277.447 232.605C277.61 231.128 277.891 231.106 277.232 230.271C275.021 229.92 273.418 231.241 271.667 232.419C269.894 233.613 269.645 234.504 268.943 236.416L267.393 239.94L266.914 239.518C265.05 240.321 262.319 242.749 259.377 243.946C253.188 246.456 247.156 244.365 241.578 244.821C245.039 239.6 244.677 239.14 243.606 232.961C248.904 225.237 247.046 219.766 240.035 214.209L242.369 212.648C243.436 206.573 244.441 198.128 237.458 195.353C237.704 194.6 237.924 193.839 238.12 193.071C238.529 191.406 238.624 190.652 237.742 189.233L237.751 188.165L237.039 187.833Z" fill="#4593D7"/>
<path d="M260.413 207.907C264.495 212.298 268.218 215.629 272.769 219.492C278.48 224.341 287.601 230.828 291.173 237.42C289 237.102 284.212 231.08 282.259 229.563C281.207 228.247 279.466 229.132 278.836 228.966C276.004 228.218 270.609 223.195 268.511 221.422C267.314 221.482 266.949 221.384 266.045 222.06C265.346 221.172 265.008 220.812 264.186 220.039C264.435 219.376 264.747 218.808 265.065 218.176C262.851 215.703 260.775 213.823 258.341 211.577C259.667 210.285 259.585 209.634 260.413 207.907Z" fill="black"/>
<path d="M265.065 218.176C266.18 219.231 267.374 220.411 268.511 221.423C267.314 221.482 266.949 221.384 266.045 222.06C265.346 221.172 265.009 220.812 264.186 220.039C264.435 219.376 264.747 218.808 265.065 218.176Z" fill="#4593D7"/>
<path d="M248.422 211.988C249.654 212.389 249.799 212.472 250.807 213.287C253.32 216.413 255.203 221.149 254.655 225.193C252.117 228.383 255.871 227.971 255.925 230.439C255.988 233.483 255.027 237.253 254.561 240.371C255.169 241.644 256.148 242.866 255.21 244.056C250.4 243.19 252.844 234.894 253.197 231.521C246.495 226.83 251.792 226.693 251.994 220.703C252.092 217.769 248.999 214.737 248.422 211.988Z" fill="black"/>
<path d="M328.021 196.442C330.072 202.876 329.388 206.633 329.269 213.247L325.183 213.37C324.994 209.938 324.89 205.56 324.22 202.262C324.497 201.722 324.462 201.221 324.522 200.579C324.594 198.167 326.141 197.67 328.021 196.442Z" fill="#4593D7"/>
<path d="M314.613 209.772C315.196 210.847 315.032 211.288 314.934 212.576L315.602 213.673C313.233 216.654 310.027 219.466 307.344 222.236C304.103 225.581 299.139 232.646 294.975 234.469L294.332 234.296C295.677 231.925 298.279 230.573 299.835 228.539C304.654 222.245 310.033 216.221 314.613 209.772Z" fill="black"/>
<path d="M312.156 244.11L312.616 245.259C311.363 246.809 308.244 250.487 307.369 252.03C305.205 254.648 303.734 255.929 300.068 255.608C297.129 255.353 292.332 253.646 290.474 251.36L290.77 251.01C291.617 250.749 296.657 252.493 298.43 252.632C300.017 252.755 301.082 252.833 302.795 252.824C305.743 251.108 309.671 246.717 312.156 244.11Z" fill="#000401"/>
<path d="M268.665 235.76C261.525 236.655 264.41 228.32 264.546 224.237C264.593 222.807 264.391 221.454 264.186 220.039C265.009 220.812 265.346 221.172 266.045 222.059C268.886 226.792 265.727 229.09 268.665 235.76Z" fill="black"/>
<path d="M247.392 196.979C249.518 198.855 249.934 200.248 251.084 202.785L253.94 207.144C252.01 206.919 247.783 205.922 246.428 204.378C244.687 202.391 245.49 198.673 247.392 196.979Z" fill="#4593D7"/>
<path d="M248.422 211.988C248.085 212.014 247.421 211.963 247.055 211.947C245.814 211.16 244.778 209.775 245.676 208.368C249.014 206.996 251.707 213.386 255.711 209.156C256.347 209.779 257.61 210.945 258.136 211.574C255.238 213.447 254.259 212.978 250.806 213.287C249.799 212.472 249.654 212.389 248.422 211.988Z" fill="#4593D7"/>
<path d="M325.801 193.776C327.064 194.105 327.716 195.204 328.021 196.442C326.141 197.67 324.594 198.167 324.522 200.579C323.13 200.136 322.402 200.193 321.064 200.621C320.727 196.156 322.09 195.686 325.801 193.776Z" fill="black"/>
<path d="M314.613 209.772C315.467 208.195 318.257 204.591 319.429 202.99C319.807 205.223 319.432 206.942 319.643 208.148L319.186 208.789C318.166 210.178 317.13 211.626 316.087 212.991L315.602 213.673L314.934 212.576C315.032 211.288 315.196 210.847 314.613 209.772Z" fill="black"/>
<path d="M321.064 200.621C322.402 200.193 323.13 200.136 324.522 200.579C324.462 201.222 324.497 201.722 324.22 202.262C322.667 204.116 321.07 206.503 319.643 208.148C319.432 206.942 319.807 205.223 319.429 202.99L321.064 200.621Z" fill="black"/>
<path d="M316.087 212.991C317.13 211.626 318.166 210.178 319.186 208.789C319.706 210.05 319.716 210.254 319.779 211.624C318.975 213.39 317.848 213.134 316.087 212.991Z" fill="#4593D7"/>
<path d="M312.156 244.11C313.662 242.097 315.325 239.625 317.306 238.164C315.81 240.759 314.525 242.913 312.616 245.259L312.156 244.11Z" fill="#4593D7"/>
<path d="M328.38 221.64L328.853 222.012C328.84 223.891 322.295 231.2 320.519 234.107C320.204 233.795 320.342 233.915 320.242 233.32C321.029 231.427 326.903 223.28 328.38 221.64Z" fill="#4593D7"/>
<path d="M328.248 230.403L329.023 230.564L329.054 231.08C327.898 232.898 325.779 235.03 324.27 236.658L323.883 236.734L323.687 236.308C324.62 234.299 326.68 231.975 328.248 230.403Z" fill="#4593D7"/>
<path d="M296.946 278.835C302.446 277.459 320.238 271.069 324.342 271.362C323.722 274.039 323.319 273.201 323.41 276.347L323.086 276.659C321.523 275.497 320.61 274.461 318.689 275.478C318.399 276.782 320.802 278.879 320.191 280.763C318.295 280.718 317.252 277.755 316.487 276.199L313.712 277.043C313.955 278.388 315.022 282.369 314.717 283.229L314.175 283.635C311.12 283.197 312.537 279.802 311.284 277.774C310.125 277.846 310.616 277.651 309.728 278.29C308.651 280.678 310.868 283.068 308.336 284.388L307.425 284.356C306.827 283.556 307.047 280.218 307.085 279.071C306.099 279.367 304.72 279.83 303.756 280.06C303.721 282.139 304.024 284.951 302.691 286.309C301.696 286.129 302.137 286.337 301.375 285.572C301.091 283.543 301.935 281.849 301.346 280.592C300.436 280.485 300.893 280.429 299.976 280.98C298.392 283.336 299.428 285.761 297.542 286.542C295.258 285.821 297.255 281.625 296.414 279.515L296.946 278.835Z" fill="black"/>
<path d="M322.125 329.364C325.694 329.777 329.347 335.88 331.13 338.661C332.377 340.601 333.02 341.496 332.44 343.716L331.379 343.489C330.878 342.963 329.215 340.771 328.969 340.186C328.05 337.956 322.128 331.361 322.125 329.364Z" fill="black"/>
<path d="M328.894 323.421C329.19 323.575 329.398 323.683 329.662 324.02C332.56 327.745 336.359 331.462 338.79 335.449C338.752 335.905 338.724 336.28 338.699 336.579C336.072 336.217 328.437 326.495 328.894 323.421Z" fill="black"/>
<path d="M338.179 319.557C339.329 319.998 342.589 322.659 343.448 323.79C344.179 324.753 343.974 324.775 343.811 325.824C341.644 325.56 339.108 323.506 338.015 321.636C337.533 320.807 337.877 320.338 338.179 319.557Z" fill="black"/>
<path d="M268.794 317.488C271.182 317.151 277.39 320.401 278.174 322.864C275.856 322.955 270.111 319.315 268.794 317.488Z" fill="black"/>
<path d="M274.555 312.342C275.988 312.546 282.581 317.469 283.129 319.025C280.776 319.075 274.984 314.883 274.555 312.342Z" fill="black"/>
<path d="M124.425 243.631C124.445 242.396 124.392 241.877 124.724 240.705C124.741 242.68 124.65 245.158 125.258 247.013C125.243 253.454 124.439 251.993 127.004 258.934C127.305 259.598 128.65 262.455 128.803 262.987C131.365 267.472 134.01 268.782 135.375 273.979C135.761 276.832 135.91 279.714 135.819 282.592L136.236 291.477C130.351 292.74 119.845 292.692 113.761 292.157L113.367 292.629C114.842 297.565 122.559 307.529 124.915 312.82C126.062 315.4 129.8 319.283 131.124 322.029C134.823 329.597 135.644 334.617 140.776 341.71C140.725 346.774 140.51 349.048 142.665 353.731C137.166 355.142 126.955 354.434 124.784 357.155C124.591 358.355 124.533 357.778 125.023 358.94C126.931 360.553 128.982 359.57 131.444 359.778C129.871 360.181 127.401 360.046 125.693 360.033C126.603 361.639 127.718 363.759 128.843 365.16C128.907 366.395 128.782 367.031 129.523 367.919C129.834 368.049 130.422 368.326 130.755 368.392C130.832 369.74 133.229 372.593 134.278 373.261C134.108 374.451 133.968 374.713 134.451 375.743C135.423 376.571 135.849 376.489 137.195 376.473L135.88 376.867L135.624 377.44C136.582 379.16 139.721 379.468 141.521 379.534C142.167 381.292 142.472 382.148 144.4 382.57C141.342 383.037 138.488 384.514 135.326 384.766C123.541 385.71 112.005 384.155 100.276 383.547C93.2872 383.181 81.5152 383.222 75.0691 381.783C73.5969 381.456 72.6958 380.92 71.5606 379.928C65.1774 374.357 62.1115 366.175 57.3889 359.362C53.0392 353.089 48.0453 347.335 43.7053 341.074C40.9837 337.146 38.1893 333.21 35.6604 329.16C33.8317 326.231 32.1897 323.157 30.2565 320.297C27.9027 316.814 25.0157 313.705 22.7029 310.191C20.1529 306.317 18.0152 302.179 15.422 298.324C13.2664 295.121 -0.0580788 278.319 0.000190536 276.303C0.0833425 273.412 6.60353 273.582 8.61492 273.409C16.2989 272.754 23.5322 271.201 31.1085 269.888C40.132 268.322 49.3272 267.34 58.2302 265.129C64.7431 263.513 71.1329 261.006 77.4326 258.695C80.153 257.696 84.9638 256.257 86.9229 254.185C87.0325 254.068 87.1352 253.945 87.2414 253.826C88.2521 253.249 88.98 252.411 89.8125 251.583L88.6011 250.172C87.8574 249.593 87.1444 248.141 86.7425 247.319C91.199 246.579 94.9228 246.755 99.3683 246.412C102.865 246.399 107.68 244.582 110.983 244.569C116.076 244.554 119.356 244.377 124.425 243.631Z" fill="#4593D7"/>
<path d="M124.425 243.631C124.445 242.396 124.392 241.877 124.724 240.705C124.741 242.68 124.65 245.158 125.258 247.013C125.243 253.454 124.439 251.993 127.004 258.934C125.498 259.718 119.452 259.009 117.314 259.293C110.972 260.128 107.905 260.918 101.496 260.751C99.9633 260.814 96.9692 260.852 95.5984 261.148C93.496 257.391 93.325 253.989 89.8124 251.583L88.6011 250.172C87.8574 249.593 87.1443 248.141 86.7424 247.319C91.1989 246.579 94.9228 246.755 99.3683 246.412C102.865 246.399 107.68 244.582 110.983 244.569C116.076 244.554 119.356 244.377 124.425 243.631Z" fill="white"/>
<path d="M124.425 243.631C124.445 242.396 124.392 241.877 124.724 240.705C124.741 242.68 124.65 245.158 125.258 247.013C120.632 247.776 113.59 247.454 109.886 248.525C106.226 249.215 103.103 250.38 99.3381 250.727C96.8375 250.96 90.0502 249.347 88.6011 250.172C87.8574 249.593 87.1443 248.141 86.7424 247.319C91.1989 246.579 94.9228 246.755 99.3683 246.412C102.865 246.399 107.68 244.582 110.983 244.569C116.076 244.554 119.356 244.377 124.425 243.631Z" fill="#4593D7"/>
<path d="M127.004 258.934C127.305 259.598 128.65 262.455 128.803 262.987C131.365 267.472 134.01 268.782 135.375 273.979C129.864 274.514 129.476 272.971 124.492 272.498C122.391 272.3 118.495 274.287 116.372 274.467C111.881 274.842 106.387 274.29 101.849 274.029C100.28 270.741 98.6398 267.485 96.9308 264.269C96.3314 263.327 95.9887 262.206 95.5984 261.148C96.9692 260.852 99.9633 260.814 101.496 260.751C107.905 260.918 110.972 260.127 117.314 259.293C119.452 259.009 125.498 259.718 127.004 258.934Z" fill="white"/>
<path d="M127.004 258.934C127.305 259.598 128.65 262.455 128.803 262.987C124.732 262.871 119.344 262.549 115.407 263.138C112.651 263.551 110.084 265.132 106.992 265.189C103.542 265.252 100.291 264.31 96.9308 264.269C96.3314 263.327 95.9887 262.206 95.5984 261.148C96.9692 260.852 99.9633 260.814 101.496 260.751C107.905 260.918 110.972 260.127 117.314 259.293C119.452 259.009 125.498 259.718 127.004 258.934Z" fill="#4593D7"/>
<path d="M124.489 276.278C129.31 277.963 130.477 278.359 135.538 277.881C135.562 279.569 135.671 280.917 135.819 282.592L136.236 291.477C130.351 292.74 119.845 292.692 113.761 292.157C111.201 291.533 106.175 280.388 104.187 277.166C114.687 279.279 114.667 279.436 124.489 276.278Z" fill="white"/>
<path d="M110.333 308.54L111.502 308.698C111.943 309.145 112.135 309.321 112.028 310.021C111.626 312.657 93.3876 332.378 89.9854 335.666C86.1997 339.323 82.1445 342.922 77.9154 346.056C76.8032 346.396 77.2527 346.497 76.4294 346.135C76.5733 344.796 82.1914 340.047 83.4441 338.97C93.6324 330.211 101.033 317.929 110.333 308.54Z" fill="black"/>
<path d="M118.908 325.856C120.085 326.029 119.589 325.802 120.484 326.492L120.575 327.197C118.426 332.728 89.5715 354.103 83.5887 357.854L82.537 358.131L82.1231 357.835C82.3048 357.022 82.456 356.751 83.1789 356.216C90.2575 350.972 97.1881 345.461 103.951 339.814C109.172 335.455 113.875 330.416 118.908 325.856Z" fill="black"/>
<path d="M111.497 351.508C112.481 351.848 112.094 351.568 112.734 352.333C112.178 355.407 100.76 361.019 97.2073 363.813L96.7871 364.146C96.2926 364.376 96.5465 364.288 95.9049 364.219L95.8889 363.359C97.5305 360.121 107.947 353.772 111.497 351.508Z" fill="black"/>
<path d="M24.0427 276.706L24.8254 277.194L24.8695 277.692C21.8206 280.722 18.5853 285.606 16.6428 289.464C13.5435 286.312 17.8655 282.951 19.8338 280.344C20.9343 278.885 22.4471 277.61 24.0427 276.706Z" fill="black"/>
<path d="M31.8681 283.994C32.5157 284.488 32.2867 284.177 32.4486 285.027C31.8105 287.109 26.6072 292.46 24.7457 294.585L24.1838 294.107L24.1448 293.259C25.1857 290.645 29.8089 286.17 31.8681 283.994Z" fill="black"/>
<path d="M11.8477 277.663L13.0726 278.025L13.3567 278.592C12.9614 280.129 11.5583 281.644 10.8817 283.723L10.0596 283.49C7.93517 281.326 10.1576 279.229 11.8477 277.663Z" fill="black"/>
<path d="M172.296 180.536C173.938 178.735 173.718 168.687 174.298 165.575C175.362 159.867 179.491 152.314 184.268 149.016C187.49 146.792 192.746 145.558 196.446 144.036C198.783 143.075 203.097 140.343 205.196 139.801C214.309 137.447 225.811 143.285 234.296 144.828L234.586 144.879C226.765 152.855 228.368 161.129 233.03 170.636C233.256 171.099 232.658 172.701 232.444 173.162L231.978 173.351C224.954 167.054 214.428 166.69 208.745 158.028C208.071 157 206.538 153.715 205.865 153.245C205.249 154.159 205.479 154.417 205.453 155.758C209.017 161.992 212.133 168.664 219.924 170.951C225.077 172.464 226.677 171.152 230.891 175.394C229.341 178.363 225.105 185.216 225.955 188.019C227.968 190.71 234.132 188.536 237.039 187.833L237.751 188.165L237.742 189.233C238.623 190.652 238.529 191.405 238.12 193.071C237.924 193.839 237.704 194.6 237.458 195.353C244.441 198.128 243.436 206.573 242.368 212.648L240.035 214.209C247.046 219.766 248.904 225.236 243.606 232.961C244.677 239.14 245.039 239.6 241.578 244.821C247.156 244.365 253.188 246.456 259.377 243.946C262.319 242.749 265.049 240.321 266.914 239.518L267.393 239.94C266.898 241.889 266.379 243.814 266.038 245.794C258.747 252.799 249.858 252.855 242.728 259.233C239.934 261.731 237.6 266.442 235.162 269.421C233.512 271.683 231.061 274.545 229.641 276.807C227.537 272.536 222.267 257.608 220.103 255.52C218.9 254.358 207.732 245.294 207.566 244.881C207.561 244.872 207.748 244.16 207.778 244.081C207.836 243.93 207.92 243.791 207.991 243.643C209.949 241.924 212.056 240.771 214.428 239.716C211.638 236.362 208.769 232.787 205.588 229.789C199.374 223.935 193.314 220.002 189.25 212.167C188.788 212.711 188.354 213.338 187.542 213.209C184.265 212.693 183.251 212.695 180.125 213.234C179.182 213.163 178.554 213.211 177.748 212.727L177.718 212.13C178.705 211.147 179.377 210.842 180.571 210.154L179.466 206.941L178.376 206.199C178.045 207.985 177.645 208.285 177.253 209.799C176.513 208.36 175.272 207.72 173.918 206.986C167.315 203.729 165.645 197.901 168.015 191.375C169.316 187.793 170.457 183.891 172.296 180.536Z" fill="white"/>
<path d="M172.296 180.536C173.938 178.735 173.718 168.687 174.298 165.575C175.362 159.867 179.491 152.314 184.268 149.016C187.49 146.792 192.746 145.558 196.446 144.036C198.783 143.075 203.097 140.343 205.196 139.801C214.309 137.447 225.811 143.285 234.296 144.828L234.586 144.879C226.765 152.855 228.368 161.129 233.03 170.636C233.256 171.099 232.658 172.701 232.444 173.162L231.978 173.351C224.954 167.054 214.428 166.69 208.746 158.028C208.071 157 206.539 153.715 205.865 153.245C205.249 154.159 205.479 154.417 205.453 155.758C204.798 155.438 204.069 155.001 203.66 154.386C202.233 152.236 200.004 153.109 197.566 153.246C199.174 151.954 200.935 151.466 201.937 150.255L201.972 149.656C198.745 147.734 193.604 152.199 192.167 155.05C189.965 159.418 189.672 164.396 186.125 167.962C183.953 170.372 177.279 173.348 176.818 175.047C177.781 175.527 178.975 175.072 179.972 174.738L180.225 174.652C180.257 182.943 181.457 188.045 183.933 195.925L184.528 197.535L185.092 199.319C186.135 203.565 187.104 205.975 188.493 210.124L189.25 212.167C188.788 212.711 188.354 213.338 187.542 213.209C184.265 212.693 183.251 212.695 180.125 213.234C179.182 213.163 178.554 213.211 177.748 212.727L177.718 212.13C178.705 211.147 179.377 210.842 180.571 210.154L179.466 206.941L178.376 206.199C178.045 207.985 177.645 208.285 177.253 209.799C176.513 208.36 175.272 207.72 173.918 206.986C167.315 203.729 165.645 197.901 168.015 191.375C169.316 187.793 170.457 183.891 172.296 180.536Z" fill="#4593D7"/>
<path d="M175.567 201.583C178.161 201.872 179.787 198.84 183.555 199.955C184.021 201.246 184.087 200.831 183.721 201.9C181.826 203.448 178.841 203.566 176.393 204.215L174.101 202.302C174.627 201.88 174.928 201.834 175.567 201.583Z" fill="#4593D7"/>
<path d="M179.466 206.942C180.835 206.332 181.767 205.72 183.212 205.896L183.956 206.349C184.357 208.39 182.106 209.541 180.571 210.155L179.466 206.942Z" fill="#4593D7"/>
<path d="M172.296 180.536C173.079 182.397 171.078 194.156 170.298 196.346C171.352 196.392 172.271 196.294 173.089 196.91C173.975 199.077 172.89 198.508 174.289 199.947L175.567 201.583C174.928 201.834 174.627 201.88 174.101 202.302L176.393 204.215L177.699 205.624L178.376 206.199C178.045 207.985 177.645 208.285 177.253 209.799C176.513 208.36 175.272 207.72 173.918 206.986C167.315 203.729 165.645 197.901 168.015 191.374C169.316 187.793 170.457 183.891 172.296 180.536Z" fill="black"/>
<path d="M173.918 206.986C174.152 206.049 174.149 206.089 174.663 205.264C175.928 204.886 175.688 205.315 177.239 205.556L177.699 205.624L178.376 206.199C178.045 207.985 177.645 208.285 177.253 209.799C176.513 208.36 175.272 207.72 173.918 206.986Z" fill="black"/>
<path d="M209.672 147.25C210.587 147.581 214.878 153.066 216.309 154.292C218.227 155.937 221.803 157.325 222.189 159.719C217.206 159.963 209.865 152.001 209.672 147.25Z" fill="black"/>
<path d="M187.906 149.773L188.455 149.961L188.558 150.496C185.404 155.894 183.417 163.019 178.22 165.419L177.342 165.257L177.355 164.748C184.411 158.975 182.307 154.929 187.906 149.773Z" fill="black"/>
<path d="M219.033 148.322C220.713 148.612 223.873 150.514 224.472 152.171C222.527 152.013 219.579 150.296 219.033 148.322Z" fill="black"/>
<path d="M180.225 174.652L179.972 174.738C178.975 175.072 177.781 175.527 176.818 175.047C177.279 173.348 183.953 170.372 186.125 167.963C189.672 164.396 189.965 159.418 192.167 155.05C193.604 152.199 198.745 147.734 201.972 149.657L201.937 150.255C200.935 151.466 199.174 151.954 197.566 153.246C192.072 159.35 194.275 164.122 186.949 170.693L187.578 171.9C191.152 171.005 191.124 171.55 193.288 174.353C193.465 176.736 193.87 180.572 193.848 182.855L193.822 183.248C193.681 185.506 194.007 190.379 193.698 191.999C192.863 192.123 192.402 192.055 191.591 191.771C191.202 190.792 191.271 189.878 191.252 188.82L191.102 188.03C189.696 187.57 186.87 188.937 185.44 189.514C187.994 196.988 190.195 206.21 194.251 212.85C197.898 218.821 205.421 223.465 209.837 228.3C212.786 231.528 226.063 246.141 224.585 249.939C221.152 251.41 216.734 242.428 214.428 239.716C211.638 236.362 208.769 232.788 205.588 229.79C199.374 223.935 193.314 220.002 189.25 212.167L188.493 210.124C187.104 205.976 186.135 203.565 185.092 199.319L184.528 197.535L183.933 195.926C181.457 188.045 180.257 182.943 180.225 174.652Z" fill="black"/>
<path d="M191.58 174.015C191.187 176.745 191.515 181.352 191.596 184.269C188.392 185.389 187.507 186.153 185.143 188.623C183.907 184.505 183.195 181.515 182.3 177.288L183.103 177.224C186.425 175.056 187.812 174.739 191.58 174.015Z" fill="white"/>
<path d="M184.528 197.535C185.005 197.417 185.774 197.071 186.111 197.383C189.082 200.135 188.341 206.624 188.493 210.124C187.104 205.975 186.135 203.565 185.092 199.319L184.528 197.535Z" fill="black"/>
<path d="M186.949 170.693L187.578 171.9C185.097 172.967 182.295 173.899 183.103 177.224L182.3 177.289C182.073 176.083 182.046 174.98 181.975 173.759C183.538 172.925 185.418 171.663 186.949 170.693Z" fill="white"/>
<path d="M237.742 189.233C238.623 190.652 238.529 191.405 238.12 193.071C237.924 193.839 237.704 194.6 237.458 195.353C244.441 198.128 243.436 206.573 242.369 212.648L240.035 214.209C247.046 219.766 248.904 225.236 243.606 232.961C244.677 239.14 245.039 239.6 241.578 244.821C240.683 245.268 240.466 245.168 239.742 244.954C238.457 243.265 239.883 240.381 240.683 238.715C239.754 233.761 239.402 231.865 242.583 227.581C243.014 214.737 231.682 218.422 230.948 207.984C230.658 203.854 235.786 193.33 237.742 189.233Z" fill="black"/>
<path d="M236.019 199.497C235.31 199.579 235.342 199.61 234.668 199.405L234.677 198.777C236.504 196.932 236.28 197.966 237.458 195.353C244.441 198.128 243.436 206.573 242.369 212.648L240.035 214.209L237.968 212.662C238.378 210.765 238.507 205.498 238.255 203.461C237.972 201.181 237.742 200.842 236.019 199.497Z" fill="#4593D7"/>
<path d="M236.019 199.497C237.742 200.842 237.971 201.181 238.255 203.461C238.507 205.497 238.378 210.765 237.968 212.662C232.053 208.485 234.822 205.83 235.959 199.839L236.019 199.497Z" fill="#4593D7"/>
<path d="M206.736 198.451C208.57 196.659 211.851 192.648 214.007 192.228C214.593 192.437 215.195 192.667 215.388 193.38C215.997 195.639 216.041 203.451 215.731 205.633C215.459 207.538 214.946 209.4 214.203 211.175C214.035 211.569 213.609 212.44 213.224 212.612C212.383 211.438 213.029 206.437 213.112 204.765C211.216 205.838 209.969 206.502 208.276 207.852C206.844 206.973 205.567 206.252 204.276 205.167L205.076 204.545C205.164 202.876 206.041 202.689 207.359 201.814L206.844 201.377C206.978 200.019 206.989 199.787 206.736 198.451Z" fill="black"/>
<path d="M207.359 201.814C209.477 199.982 211.345 198.324 213.728 196.806L213.284 202.72C210.165 204.657 208.776 205.554 205.076 204.545C205.164 202.876 206.041 202.689 207.359 201.814Z" fill="white"/>
<path d="M193.848 182.854C194.198 185.415 193.649 193.388 194.848 194.731C195.7 194.556 195.937 194.493 196.555 193.557C196.78 194.766 196.793 195.824 197.641 196.616C198.46 196.967 198.655 196.859 199.546 196.766C199.678 197.612 199.648 198.123 200.067 198.813C199.732 199.456 199.651 199.456 199.097 199.946L198.627 199.685L198.02 197.421L197.283 197.138C196.089 196.782 193.874 199.233 191.623 197.632C190.299 195.615 190.96 191.299 191.252 188.82C191.271 189.878 191.202 190.792 191.591 191.771C192.402 192.055 192.863 192.123 193.698 191.999C194.007 190.379 193.681 185.506 193.822 183.248L193.848 182.854Z" fill="black"/>
<path d="M206.736 198.451C206.989 199.787 206.978 200.019 206.844 201.377L207.359 201.814C206.041 202.689 205.164 202.876 205.076 204.545L204.276 205.167C203.85 204.652 203.419 204.284 202.933 203.827L201.416 201.557C204.027 200.637 204.624 200.12 206.736 198.451Z" fill="black"/>
<path d="M197.655 201.27C198.317 200.339 199.222 200.135 200.31 199.698L201.416 201.557L202.933 203.827C202.164 204.924 202.2 205.13 200.955 205.26C199.243 204.57 198.58 202.905 197.655 201.27Z" fill="black"/>
<path d="M196.555 193.557C197.616 193.236 197.558 193.218 198.606 193.537C199.489 194.403 199.564 194.934 199.56 196.178C199.559 196.374 199.554 196.57 199.546 196.766C198.655 196.858 198.46 196.967 197.641 196.616C196.793 195.824 196.78 194.766 196.555 193.557Z" fill="white"/>
<path d="M197.283 197.138L198.02 197.42L198.627 199.685L199.097 199.946C199.651 199.456 199.732 199.456 200.067 198.813L200.31 199.698C199.222 200.135 198.317 200.339 197.655 201.27C196.839 199.611 196.895 198.952 197.283 197.138Z" fill="black"/>
<path d="M200.433 164.128C203.198 163.821 207.654 164.351 209.919 165.992L209.896 166.524C208.622 167.152 207.135 166.957 205.657 166.936C203.34 167.193 198.191 169.479 197.132 167.322C197.686 165.353 198.575 165.193 200.433 164.128Z" fill="black"/>
<path d="M208.891 176.437C210.245 176.376 210.955 176.441 212.229 176.811L212.554 177.599C211.075 179.641 207.219 179.447 204.019 182.093L203.708 182.355C203.158 182.962 203.108 183.133 202.33 183.387L201.84 183.031C201.153 179.542 206.137 177.164 208.891 176.437Z" fill="black"/>
<path d="M152.54 203.531C157.936 203.916 156.267 208.825 156.655 212.871C155.675 212.482 155.64 212.498 154.647 212.37C153.561 213.176 153.78 214.298 153.785 215.594C154.095 218.67 154.527 222.863 154.31 225.878C153.946 230.936 153.22 235.288 153.211 240.406C149.692 243.023 143.566 251.136 145.755 255.435C147.782 255.904 148.635 253.508 149.381 251.917C151.43 247.565 153.357 244.787 157.413 241.971C157.239 238.321 157.211 234.665 157.331 231.014C160.755 229.981 161.875 229.853 165.453 229.975L165.536 230.479C166.267 235.055 166.828 245.076 165.929 249.804C164.777 255.866 160.198 263.041 162.723 269.755C167.812 282.356 171.598 295.565 176.518 308.244C177.148 309.869 178.262 314.584 179.149 315.378C180.043 315.261 179.702 315.463 180.248 314.83C180.078 311.148 176.99 303.111 175.834 299.155C173.536 291.348 171.198 283.588 168.648 275.859C167.843 273.418 165.686 268.599 165.416 266.329C164.935 262.272 167.867 255.592 169.142 251.671C170.989 245.99 169.445 240.989 169.545 235.209C173.457 238.592 176.481 240.926 181.577 242.311C183.073 243.445 181.63 249.489 181.72 250.739C182.101 256.018 178.527 259.331 176.878 263.091C175.85 265.434 171.307 279.254 171.463 280.967C172.855 280.744 174.198 277.191 174.661 275.894C176.696 270.196 179.044 265.412 182.347 260.32C184.403 271.799 185.581 283.358 187.733 294.837C188.842 300.755 188.657 307.12 190.638 312.918C192.236 318.228 195.946 323.415 198.14 328.438C196.072 330.048 193.801 331.95 191.465 333.276C182.931 338.123 160.195 340.019 153.543 331.131C148.84 324.848 145.843 312.968 144.182 305.3C142.671 299.048 141.072 294.803 140.421 288.189C139.864 282.548 140.25 276.646 138.782 271.314C137.858 267.96 134.479 264.814 132.473 261.992C129.532 257.851 127.945 254.509 126.742 249.64C131.65 250.421 136.114 249.306 140.976 248.216C140.299 241.174 141.38 240.006 141.625 233.899C137.072 228.728 134.755 220.385 132.903 213.771C134.913 212.933 135.249 212.61 136.967 211.329C139.277 216.425 141.793 221.556 143.473 226.874C143.949 228.378 144.536 231.269 145.566 232.013C146.309 231.988 146.941 232.114 147.404 231.43C148.682 229.55 148.188 223.333 148.182 221.143C147.943 219.136 148.029 214.557 148.018 212.279C147.218 212.02 147.034 212.702 146.2 213.059C146.2 213.059 144.781 213.107 144.659 213.112C144.513 206.998 144.222 206.349 150.321 204.455L152.54 203.531Z" fill="white"/>
<path d="M150.322 204.455L152.541 203.531C153.556 204.916 153.319 205.794 152.924 207.415L151.017 208.452C150.13 208.885 149.805 208.958 148.825 209.127C147.862 210.421 148.539 218.669 148.182 221.143C147.943 219.136 148.029 214.557 148.019 212.279C147.218 212.02 147.034 212.702 146.2 213.059C146.2 213.059 144.782 213.107 144.659 213.112C144.514 206.998 144.222 206.349 150.322 204.455Z" fill="black"/>
<path d="M150.322 204.455L152.541 203.531C153.556 204.916 153.318 205.794 152.924 207.415L151.017 208.452C150.638 208.248 150.53 208.115 150.199 207.836C149.806 206.482 150.056 205.842 150.322 204.455Z" fill="black"/>
<path d="M152.54 203.531C157.936 203.916 156.267 208.825 156.655 212.871C155.675 212.482 155.64 212.498 154.647 212.37C153.561 213.176 153.78 214.298 153.785 215.594C153.3 213.512 153.638 208.611 152.924 207.415C153.318 205.794 153.556 204.916 152.54 203.531Z" fill="black"/>
<path d="M305.643 375.755C301.872 376.577 299.142 377.881 295.668 379.506C294.131 380.224 288.773 380.697 288.93 382.7L289.381 382.977C295.825 382.363 305.309 377.431 311.829 375.661C315.315 374.716 319.334 374.341 322.938 373.636C330.443 372.165 336.406 370.203 343.329 367.006C348.019 369.267 352.743 371.453 357.499 373.573C361.074 375.125 368.929 377.884 371.052 380.823C371.263 382.867 369.081 383.799 367.414 384.526C360.381 387.606 352.463 389.452 345.401 392.214C335.036 396.274 325.394 399.508 314.484 401.984C307.517 403.565 300.087 406.758 292.839 407.111C287.239 407.221 275.157 394.589 270.546 390.976C268.123 389.083 262.911 385.307 261.018 383.345C260.564 382.479 257.846 382.189 256.838 381.985C254.299 375.784 250.621 376.284 246.731 372.725C247.742 372.247 249.295 371.951 250.422 371.686C251.002 372.448 252.227 374.124 253.229 374.184C254.681 374.269 256.766 372.848 258.416 372.902C260.785 372.984 263.594 373.878 265.865 373.988C267.358 374.058 270.725 373.617 272.265 373.374C277.138 372.612 280.017 373.595 284.622 374.927C282.886 376.048 280.262 377.062 278.31 377.897L278.351 378.457C281.078 379.846 285.431 376.196 289.233 375.878C294.738 375.415 300.15 375.67 305.643 375.755Z" fill="#4593D7"/>
<path d="M337.892 376.089L338.305 376.205L338.431 376.675C336.481 379.569 322.22 382.659 318.556 384.501C317.971 384.797 314.153 384.564 313.114 384.973C308.685 386.721 304.704 388.258 300.046 389.357L299.57 389.027L299.466 388.353C300.052 387.628 311.019 382.841 312.27 382.611C320.166 381.144 330.428 378.961 337.892 376.089Z" fill="black"/>
<path d="M189.25 212.167C193.314 220.002 199.374 223.935 205.588 229.789C208.769 232.787 211.639 236.362 214.428 239.716C212.056 240.771 209.949 241.924 207.991 243.643C206.691 239.2 208.872 239.174 204.684 233.694C205.286 237.505 204.615 240.771 205.289 244.623C202.446 246.374 200.284 247.883 197.63 249.886C198.119 247.864 198.286 245.391 198.527 243.791C200.323 231.997 193.48 231.572 185.804 226.699C184.596 225.933 186.687 219.439 186.962 217.859C178.99 228.501 185.249 229.106 192.318 235.137C195.044 237.461 195.86 241.911 195.616 245.253C195.5 246.846 196.2 248.645 196.692 250.27C194.731 252.015 188.316 256.799 185.839 256.257C183.314 253.359 187.468 244.034 185.668 241.593C181.348 235.738 175.906 238.031 171.168 230.031C173.015 224.962 179.491 216.694 180.125 213.234C183.251 212.695 184.265 212.693 187.542 213.209C188.354 213.338 188.788 212.711 189.25 212.167Z" fill="#4593D7"/>
<path d="M135.108 208.536C136.307 207.914 136.619 207.597 137.875 207.775C139.723 208.687 140.643 210.684 141.19 212.613L140.551 213.781C139.137 213.118 136.921 210.956 135.574 209.818C135.726 209.064 135.721 209.461 135.108 208.536Z" fill="black"/>
<path d="M135.574 209.818C138.121 208.639 139.938 211.665 140.551 213.781C139.137 213.118 136.921 210.956 135.574 209.818Z" fill="black"/>
<path d="M193.429 337.65C196.682 337.584 201.525 337.943 205.058 337.991C205.04 340.217 205.179 340.743 205.943 342.749C203.594 343.669 201.252 344.604 198.918 345.559C194.979 344.938 195.114 344.696 191.523 346.261C189.942 345.338 189.298 345.045 187.517 344.576C189.511 342.236 191.172 339.786 193.429 337.65Z" fill="white"/>
<path d="M251.584 290.648C252.208 290.664 252.133 290.702 252.75 290.904C254.703 295.684 220.138 311.211 215.338 313.079C214.345 313.192 214.277 313.208 213.67 312.641C214.223 311.431 222.138 307.75 223.685 306.969C229.03 304.326 234.29 301.511 239.455 298.535C243.587 296.135 247.543 293.256 251.584 290.648Z" fill="#4593D7"/>
<path d="M237.307 316.174C240.239 314.574 248.016 309.718 250.64 309.438L251.071 309.753C250.526 312.238 241.181 316.294 238.601 317.45C238.038 317.028 237.783 316.691 237.307 316.174Z" fill="#4593D7"/>
<path d="M237.307 316.175C237.783 316.691 238.038 317.028 238.601 317.45C236.145 318.833 227.918 322.329 225.341 323.003C228.68 320.048 233.203 317.941 237.307 316.175Z" fill="#709AF4"/>
<path d="M219.625 276.643L220.904 276.952C222.383 278.46 221.51 280.237 220.544 281.77C219.246 281.515 219.772 281.805 218.856 280.977C218.238 279.326 218.913 278.234 219.625 276.643Z" fill="#4593D7"/>
<path d="M215.559 265.589C218.288 266.502 217.401 268.508 216.824 270.653L215.348 270.524C213.609 269.311 214.911 267.22 215.559 265.589Z" fill="#4593D7"/>
<path d="M200.296 331.922C201.337 332.366 202.314 333.77 202.462 334.892L202.075 335.166L200.998 334.91C199.925 334.873 199 334.951 198.068 334.432C198.306 333.462 199.425 332.731 200.296 331.922Z" fill="white"/>
<path d="M317.577 319.513C318.638 319.831 318.745 319.913 319.111 320.798C318.708 321.881 318.254 322.02 317.23 322.706L316.175 322.788L315.819 322.395C316.034 321.229 316.818 320.474 317.577 319.513Z" fill="white"/>
<path d="M180.652 3.3489C184.502 1.44414 203.203 -1.2073 206.59 0.606709C207.832 2.51085 208.094 15.1019 208.242 17.9358C213.257 17.9201 218.463 18.6094 223.516 18.6223C229.152 18.6362 234.885 18.1828 240.51 18.4895C241.742 18.5569 242.359 18.7046 243.09 19.5833C243.924 24.1773 244.671 32.1384 244.154 36.8313C244.041 37.8555 243.527 39.5263 242.337 39.7962C238.308 40.7109 232.973 40.3562 228.797 40.388C208.851 40.5394 193.889 38.8094 176.465 50.386C183.597 50.649 190.073 49.8877 197.254 49.0081C213.397 47.2705 227.345 47.893 242.495 54.2942C261.333 62.2512 266.524 74.3053 258.599 93.5882C255.453 101.248 241.811 108.476 233.962 111.065C229.549 112.141 226.311 112.948 221.766 113.432L221.88 124.107C221.702 125.666 221.173 128.652 220.311 129.774C217.965 132.829 198.958 133.659 196.927 132.158C195.77 129.601 196.26 119.802 196.265 116.525C190.154 116.597 157.295 115.826 153.833 113.588C153.238 113.204 153.042 112.45 152.948 111.769C152.529 108.733 153.309 105.47 153.336 102.407C153.383 97.1141 152.84 91.6905 153.207 86.4182C153.276 85.4261 153.366 84.5675 154 83.7727C155.25 83.0821 156.874 82.8119 158.292 82.9231C163.444 83.1304 168.631 84.209 173.763 84.5003C182.696 85.0076 191.567 85.7021 200.484 86.4583C204.943 86.8365 210.222 86.14 214.793 86.1223C221.403 86.0971 229.704 85.663 234.457 80.4153C237.172 77.2401 229.361 73.1878 226.642 72.7112C221.28 71.7708 216.074 71.7114 210.561 71.6975C204.48 71.6733 198.399 71.7427 192.32 71.9055C179.192 72.3543 162.635 73.6215 150.396 68.0178C141.612 63.9957 140.828 50.9472 145.359 43.3001C146.943 40.6054 148.997 38.2159 151.422 36.2434C157.795 31.0967 175.302 23.2301 183.317 21.1917C183.03 13.6745 181.767 10.5114 180.652 3.3489Z" fill="#4593D7"/>
<path d="M207.478 97.2087C209.753 97.6147 219.228 106.98 219.298 109.67C215.569 109.655 207.383 100.296 207.478 97.2087Z" fill="black"/>
<path d="M156.385 44.0144C159.081 43.9772 164.639 48.4425 167.097 50.0625C167.801 50.5261 167.763 51.1494 167.784 51.8136C164.981 52.0917 160.627 48.6352 158.477 46.9774C157.012 45.8467 156.545 45.5926 156.385 44.0144Z" fill="black"/>
<path d="M220.759 95.6191C222.999 96.1095 227.574 102.147 227.294 104.62C224.582 104.184 220.122 98.6536 220.759 95.6191Z" fill="black"/>
<path d="M162.695 39.3315C164.468 39.4821 170.947 43.8254 172.466 45.0682L172.544 45.8637C169.646 46.3661 163.317 41.9701 162.695 39.3315Z" fill="black"/>
<path d="M214.654 61.3277C217.213 61.3126 220.684 65.2764 220.96 67.6964C218.543 67.4193 215.512 63.5679 214.654 61.3277Z" fill="black"/>
<path d="M231.408 95.5837C233.962 96.0823 233.949 97.2337 234.233 99.4733C232.664 99.2591 232.825 99.404 231.77 98.4582C231.275 97.2249 231.363 96.9591 231.408 95.5837Z" fill="#4593D7"/>
<path d="M234.586 144.879C238.343 141.877 239.367 141.733 243.326 139.367C246.047 137.51 248.583 134.28 251.547 132.852C262.379 127.629 276.451 126.899 288.304 127.407C293.753 127.64 304.943 133.016 308.225 137.338C314.972 146.223 322.068 153.767 333.836 154.746C336.346 154.955 340.384 155.097 342.585 156.419C343.729 159.054 340.91 163.704 339.596 166.196C337.458 170.253 334.598 176.516 330.415 178.855C328.843 179.734 323.99 178.431 322.068 178.006C323.479 179.558 325.753 181.611 325.905 183.584C324.809 185.598 317.026 196.438 313.536 195.245C312.893 195.026 311.117 192.782 309.914 192.687C309.863 193.041 309.803 193.227 309.841 193.572L310.367 196.037C311.23 199.902 308.014 201.324 305.268 203.161L303.81 204.071C301.854 205.147 300.383 205.905 298.348 206.813C296.231 207.662 294.909 207.918 292.663 208.411C287.4 208.965 288.993 203.487 289.491 200.158C289.806 198.057 290.175 195.972 290.483 193.866C290.521 190.742 290.644 187.065 290.316 183.992C289.882 179.925 288.823 175.722 288.404 171.654C287.012 171.629 285.963 171.74 284.71 171.18L284.37 170.615C285.567 166.422 291.419 167.842 290.738 155.827C287.444 151.69 285.1 151.933 280.801 155.098C277.793 157.313 276.577 161.182 274.032 163.498L273.532 163.429C273.069 161.53 273.557 160.374 274.026 158.457C270.939 158.203 267.572 158.096 264.577 157.743C258.687 157.047 250.611 152.542 245.713 149.017C243.386 161.202 235.647 174.067 230.107 185.351C234.151 184.298 238.252 183.471 242.391 182.875C247.736 185.028 249.836 186.83 254.511 189.438L254.926 189.165C258.167 186.994 263.638 180.788 266.152 180.335C270.596 181.382 271.96 197.781 268.826 200.295C267.916 200.294 268.313 200.433 267.594 199.845C267.049 198.33 267.125 194.778 266.842 192.743C261.314 197.728 261.78 195.35 256.826 191.786C255.824 191.065 255.015 192.743 253.751 191.649C250.46 189.834 247.862 187.312 244.655 185.409C247.021 188.972 249.355 192.558 251.657 196.164C253.159 198.534 254.41 200.873 256.129 203.099C254.476 203.473 253.537 202.468 251.084 202.785C249.934 200.248 249.518 198.855 247.392 196.979C245.622 194.726 242.643 189.595 241.146 186.953C239.641 187.217 238.532 187.414 237.039 187.833C234.132 188.536 227.968 190.71 225.955 188.019C225.105 185.216 229.341 178.363 230.891 175.394C226.677 171.152 225.077 172.465 219.924 170.951C212.133 168.664 209.017 161.992 205.453 155.758C205.479 154.417 205.249 154.159 205.865 153.245C206.539 153.715 208.071 157 208.746 158.028C214.428 166.69 224.954 167.054 231.978 173.351L232.444 173.162C232.658 172.701 233.256 171.099 233.03 170.636C228.368 161.129 226.765 152.855 234.586 144.879Z" fill="black"/>
<path d="M292.663 208.411C287.4 208.965 288.993 203.487 289.491 200.158C289.806 198.057 290.175 195.972 290.483 193.866C290.49 195.317 290.228 195.507 290.915 196.424C293.605 197.061 298.105 194.644 301.117 198.935C302.222 200.508 302.628 202.981 303.81 204.071C301.854 205.147 300.383 205.905 298.348 206.813C296.231 207.662 294.909 207.918 292.663 208.411Z" fill="black"/>
<path d="M292.663 208.411L291.879 207.97C291.604 207.43 291.406 207.076 291.286 206.475C290.924 204.745 291.315 202.943 292.354 201.515C292.908 200.749 294.112 199.673 295.101 199.721C298.291 199.874 298.339 204.597 298.348 206.813C296.231 207.662 294.909 207.918 292.663 208.411Z" fill="black"/>
<path d="M309.841 193.572L310.367 196.037C311.23 199.902 308.014 201.324 305.268 203.161C305.262 200.742 305.199 198.832 305.013 196.421C306.449 196.385 307.87 196.506 309.111 195.882C309.967 194.809 309.699 195.172 309.841 193.572Z" fill="black"/>
<path d="M306.584 157.04C309.35 158.206 309.703 165.46 309.763 167.982C309.892 173.494 308.112 178.84 306.641 184.089C305.958 184.452 306.074 184.361 305.293 184.536L304.903 184.19C304.377 181.532 306.811 175.499 307.145 171.67C307.655 165.853 306.745 162.642 306.591 157.342L306.584 157.04Z" fill="#4593D7"/>
<path d="M290.518 135.703C291.167 135.934 291 135.898 291.567 136.355L291.438 136.962C287.708 140.476 276.347 144.77 271.122 145.584C267.979 146.075 261.856 145.85 258.545 145.767C257.874 145.648 257.903 145.688 257.405 145.229C258.536 144.233 267.361 144.857 270.423 144.089C277.629 142.28 284.089 139.222 290.518 135.703Z" fill="#4593D7"/>
<path d="M265.027 185.803L265.377 186.003C265.919 187.126 266.06 188.722 266.256 189.994C264.788 191.225 263.172 193.784 261.33 192.803L258.366 190.563C260.511 189.111 262.892 187.317 265.027 185.803Z" fill="white"/>
<path d="M300.95 171.71C301 174.838 300.14 182.014 296.502 182.837L296.046 182.501C296.002 181.351 297.825 178.365 298.294 176.404C298.997 173.478 299.236 171.358 299.605 168.402C299.658 169.56 299.535 170.66 300.244 171.522L300.95 171.71Z" fill="#4593D7"/>
<path d="M298.14 139.422C298.82 139.728 298.534 139.514 298.928 140.169C298.08 142.854 288.156 147.119 285.217 147.916L284.338 147.611C284.209 147.791 297.195 139.953 298.14 139.422Z" fill="#709AF4"/>
<path d="M242.602 145.796C243.329 145.94 243.083 145.87 243.742 146.247C243.408 147.335 241.556 148.479 240.803 149.556C239.361 151.626 238.331 153.925 237.014 156.154C236.652 156.232 236.397 156.189 236.012 156.178C234.23 153.233 240.013 147.26 242.602 145.796Z" fill="#709AF4"/>
<path d="M315.841 161.693C318.471 162.809 319.256 167.232 317.278 169.348C316.509 169.33 316.84 169.46 316.27 168.915C316.166 167.214 315.687 163.068 315.841 161.693Z" fill="#4593D7"/>
<path d="M299.605 168.402C299.633 166.356 299.576 165.434 300.131 163.457L300.424 163.246C301.233 165.787 301.145 169.057 300.95 171.71L300.244 171.522C299.535 170.661 299.658 169.56 299.605 168.402Z" fill="#4593D7"/>
<path d="M249.279 196.383C251.572 196.583 252.183 197.782 252.022 199.902C250.303 199.606 249.336 198.027 249.279 196.383Z" fill="black"/>
<path d="M301.753 88.9629C308.925 88.3995 318.179 93.5332 320.516 100.578C330.547 99.9842 344.261 99.4597 352.388 106.892C355.613 109.841 355.836 114.067 355.761 118.179C364.476 121.071 369.547 129.253 369.758 138.284C369.833 141.487 368.041 143.463 365.843 145.451C382.924 156.343 370.785 187.274 363.984 186.545L363.727 186.114C363.859 184.949 364.65 184.219 365.431 183.205C371.364 175.492 372.019 167.963 371.084 158.55C370.621 153.896 367.128 150.314 363.516 147.664C360.649 148.467 352.17 151.52 352.74 145.758C353.125 141.888 359.493 143.457 361.899 143.943C365.534 141.666 366.35 141.156 366.01 136.341C365.717 132.193 359.415 122.081 354.706 123.053C353.418 123.809 352.667 125.377 351.836 126.71C347.798 131.369 346.113 131.284 340.428 133.512C335.001 135.638 323.83 135.419 329.552 126.891C333.527 120.965 345.407 118.868 352.327 118.032C352.006 114.478 352.022 110.416 349.121 108.078C341.338 101.809 329.372 102.627 320.377 103.105C318.944 111.399 310.449 117.521 301.775 117.076C299.659 116.968 297.259 114.409 298.647 112.147C302.257 106.275 310.185 103.942 316.317 101.807C309.986 91.0763 298.581 93.2723 288.206 95.0791C283.063 95.9745 278.215 97.3949 273.497 99.6416C270.243 101.192 267.509 103.709 264.344 105.415C263.172 105.346 263.625 105.571 262.851 104.939C262.778 104.288 263.093 103.702 263.521 103.237C272.602 93.38 289.217 90.0605 301.753 88.9629ZM348.818 123.279C346.2 123.771 332.602 126.834 333.253 130.241L333.451 130.44C338.954 129.526 345.474 128.495 349.09 123.917C348.958 123.332 349.114 123.502 348.818 123.279ZM313.835 105.554C310.666 106.551 302.2 110.091 301.221 113.562L301.498 114.154L302.257 114.403C305.126 113.664 314.915 108.838 314.465 105.671L313.835 105.554Z" fill="#4593D7"/>
<path d="M124.416 107.338C131.761 110.457 128.411 120.063 125.669 125.2C134.95 125.917 132.477 139.181 127.174 141.855C126.243 141.825 125.447 141.654 124.736 142.167C124.751 143.657 124.779 145.145 124.819 146.634C137.873 150.164 153.306 150.104 163.418 160.473C166.037 163.158 174.325 173.728 170.804 177.238C170.509 177.233 170.214 177.228 169.919 177.223C167.418 173.788 164.79 168.589 161.823 165.682C160.12 164.106 157.819 161.275 155.792 160.141C146.237 154.796 135.036 153.48 124.683 149.785C124.633 152.678 123.542 163.308 123.948 165.029C124.801 166.054 126.215 170.337 126.927 171.906C128.625 176.04 131.128 180.752 132.607 184.888C134.61 190.492 132.908 191.028 128.116 191.954C119.717 193.577 117.05 198.17 112.657 205.433C113.637 201.143 115.093 196.827 117.559 193.137C120.704 188.43 125.269 188.107 130.385 187.192C129.262 185.238 127.968 181.526 126.958 179.271C125.461 175.928 123.303 172.403 122.274 169.01C121.426 170.931 119.866 175.402 117.907 175.944C117.271 175.109 119.481 169.046 119.901 167.597C123.486 155.219 120.804 143.191 120.707 131.301C119.843 130.168 117.769 128.262 117.962 126.957L118.553 126.698C120.187 126.873 119.725 126.867 121.24 128.018L121.685 127.928C122.839 123.987 124.32 120.441 125.258 116.464C125.983 113.395 123.593 109.091 124.416 107.338Z" fill="black"/>
<path d="M126.118 128.453C126.956 128.478 126.897 128.477 127.631 128.893C129.824 131.85 127.869 136.357 125.525 138.694L124.702 139.114L124.296 138.832C123.492 136.864 123.564 133.512 123.959 131.429C124.282 129.728 124.739 129.407 126.118 128.453Z" fill="white"/>
<path d="M64.7425 138.892C62.3393 135.088 59.2226 130.96 60.4731 126.261C60.6923 125.437 60.6907 125.554 61.3333 125.229C62.882 126.256 61.6095 128.457 62.6867 130.36C64.5141 133.59 67.043 136.454 69.5058 139.215C69.7429 138.151 69.9694 137.086 70.1852 136.018C71.0816 135.384 70.5839 135.561 71.7606 135.568L72.2882 136.135C72.5241 137.462 72.1477 138.643 71.8668 139.987C74.0999 146.781 74.9091 153.056 76.8395 159.635C78.6622 165.848 86.5862 175.047 91.4755 179.424C96.0955 183.561 99.1973 186.237 103.518 191.057C104.29 191.885 105.582 193.781 106.234 194.019C106.479 193.778 106.671 193.629 106.854 193.348C107.753 191.264 114.379 181.229 115.957 180.345L116.312 180.586C116.019 183.121 109.931 193.503 108.34 196.876C110.782 201.901 110.101 204.569 112.967 208.969C112.273 210.937 111.895 211.813 110.938 213.667C113.744 216.851 119.333 224.771 119.314 229.136L118.803 229.387C116.585 228.48 114.592 222.03 112.773 220.003C111.013 218.044 108.502 216.518 106.702 214.785C108.137 212.973 109.681 210.882 111.367 209.338L111.135 208.999C108.907 205.679 108.213 201.494 105.585 198.512C99.5595 191.676 93.4201 184.854 87.2634 178.136C84.2948 174.896 80.8437 172.339 78.3022 168.667C72 176.72 62.9588 183.341 58.9713 192.877C57.4764 196.452 54.6754 204.322 54.6046 208.035C54.3794 208.602 54.3866 208.527 54.0338 209.038C52.8707 209.083 51.2596 208.106 50.0974 207.571C50.132 206.836 50.1953 206.103 50.287 205.372C50.8004 201.252 53.596 194.822 55.1539 190.843C58.5889 182.067 69.2815 172.103 76.6842 166.484C74.2155 162.334 73.459 158.736 72.0224 154.127C66.4125 152.446 62.2252 148.564 63.6067 142.224C63.9192 140.79 63.9365 140.251 64.7425 138.892Z" fill="black"/>
<path d="M103.518 191.057C104.29 191.885 105.582 193.781 106.234 194.019C106.479 193.778 106.671 193.629 106.854 193.348C107.236 195.764 107.313 197.813 107.303 200.245C105.933 197.408 104.568 195.725 103.075 193.063C102.664 192.329 103.192 191.634 103.518 191.057Z" fill="black"/>
<path d="M67.0672 141.195C70.6399 142.305 71.1265 147.377 71.1669 150.628C66.8363 147.811 65.6048 146.496 67.0672 141.195Z" fill="white"/>
<path d="M56.4912 190.624C57.1107 190.773 57.2478 190.866 57.8267 191.148C58.0821 192.455 57.2134 193.68 56.5677 194.975C56.1958 194.914 55.9154 194.793 55.5538 194.67C55.3009 193.438 56.0376 191.983 56.4912 190.624Z" fill="black"/>
<path d="M256.838 381.985C257.846 382.189 260.564 382.479 261.018 383.345C259.755 385.669 263.204 400.645 262.06 404.38C261.342 408.222 256.202 407.926 253.03 407.819C224.844 406.881 196.771 406.304 168.547 406.487C166.03 406.503 158.085 407.057 156.851 404.5C156.904 400.922 169.609 385.203 172.303 384.791L172.68 385.099C172.734 385.978 172.528 386.98 172.021 387.698C168.598 392.532 164.81 397.42 161.339 402.226C169.434 401.69 178.481 401.902 186.641 401.867C198.332 402.342 210.794 401.193 222.425 401.861C234.532 402.553 245.613 402.887 257.774 402.875C257.783 394.853 257.648 389.959 256.838 381.985Z" fill="#4593D7"/>
<path d="M91.6607 87.0512C100.018 86.1416 107.917 87.1608 113.575 93.8549C114.84 95.3521 116.429 97.016 115.651 99.0917C114.715 100.02 115.25 99.7503 114.034 100.014C112.519 99.5871 109.181 95.5757 107.501 94.356C99.8439 88.7969 86.5692 90.8988 79.043 95.685C73.9034 98.9538 72.9197 100.673 66.4717 101.566C62.4863 102.58 61.326 105.468 59.7052 108.885C60.1512 112.428 63.3254 119.617 62.8145 121.374L62.9349 120.829L62.3311 121.317L62.8312 121.332C59.7215 120.408 56.8884 111.932 55.9101 108.952C56.798 106.093 57.7281 103.972 59.5001 101.605C61.7881 97.34 67.5589 98.3721 70.2516 96.6393C78.2112 91.5171 81.6856 88.254 91.6607 87.0512Z" fill="black"/>
<path d="M50.0973 207.571C51.2595 208.106 52.8706 209.083 54.0338 209.038C54.3865 208.527 54.3793 208.602 54.6045 208.035C54.5409 210.309 54.8136 215.654 54.3358 217.327C53.9834 223.391 54.0341 258.997 51.4148 261.693L50.8794 261.554C48.4459 258.32 50.0267 234.932 49.5064 229.214C49.1259 225.031 49.6094 217.532 49.8677 213.165C49.8374 211.104 49.93 209.633 50.0973 207.571Z" fill="black"/>
<path d="M50.0973 207.571C51.2595 208.106 52.8706 209.083 54.0338 209.038C54.3865 208.527 54.3793 208.602 54.6045 208.035C54.5409 210.309 54.8136 215.654 54.3358 217.327C54.2363 216.441 54.3966 214.574 54.4508 213.61C53.2334 213.39 50.8983 212.785 49.8677 213.165C49.8374 211.104 49.93 209.633 50.0973 207.571Z" fill="black"/>
<path d="M110.133 107.161C112.531 106.956 116.871 106.418 117.302 109.499C116.598 111.331 114.139 110.897 112.225 111.072C109.566 111.083 107.419 113.285 105.517 115.163C96.5726 123.996 85.8977 125.398 73.8898 121.918C72.0601 121.303 68.352 120.017 67.4093 118.332L67.6244 117.686C68.4018 117.462 83.9105 121.451 90.9621 119.211C100.412 116.209 103.32 109.608 110.133 107.161Z" fill="black"/>
<path d="M93.6966 137.829C96.377 139.126 99.8367 156.656 100.679 160.169C103.763 159.856 111.722 156.814 112.375 161.247C113.942 171.887 98.328 172.62 92.2402 168.544C90.7539 167.056 89.8084 166.132 89.5646 163.957C89.8723 163.511 89.7369 163.425 90.2603 163.353C92.6443 163.03 93.6998 165.549 95.4964 166.276C98.6782 167.565 103.133 167.729 106.336 166.418C108.329 165.602 108.685 164.216 109.397 162.369C106.861 162.643 100.734 163.637 98.7711 162.375C96.9616 159.774 93.4018 141.468 93.6966 137.829Z" fill="black"/>
<path d="M186.502 371.157L186.915 371.059C190.881 374.108 198.376 371.544 200.238 374.146L200.014 374.757C197.63 377.147 190.083 375.528 187.407 374.407C187.45 374.426 185.651 375.935 185.548 375.944C184.367 376.051 181.674 376.001 180.676 376.451C176.177 378.479 171.652 380.605 167.139 382.596C164.664 383.714 155.695 384.961 153.484 384.066L153.228 383.452C154.112 381.896 159.321 382 162.025 381.103C167.775 379.292 172.867 375.963 178.355 373.541C180.955 372.392 183.972 372.489 186.502 371.157Z" fill="black"/>
<path d="M87.2414 253.826C85.9887 252.484 84.7342 250.434 83.5348 248.931C78.7214 242.903 74.4108 236.368 71.9326 229.004C71.2239 226.898 68.1794 219.09 71.6012 218.524C72.3342 219.188 74.4939 226.395 75.3059 228.195C78.4969 235.269 82.5008 240.935 86.7424 247.319C87.1443 248.141 87.8574 249.593 88.6011 250.172L89.8125 251.583C88.98 252.411 88.2521 253.249 87.2414 253.826Z" fill="black"/>
<path d="M83.2302 177.414L84.0384 177.802C85.2476 179.931 85.1509 186.162 85.1402 188.813C85.1188 194.127 85.1723 198.642 85.9969 203.937C88.0748 202.525 91.1287 200.678 93.6037 201.263C95.4633 201.703 103.516 202.754 104.466 204.039C103.61 204.609 103.64 204.415 102.423 204.466C98.1966 203.556 95.2536 202.979 90.9315 203.936C88.4924 204.476 85.2605 207.621 83.4032 207.759C81.53 205.319 81.6636 181.281 83.2302 177.414Z" fill="black"/>
<path d="M221.283 390.098C223.647 389.959 226.015 389.909 228.384 389.943C230.699 389.984 239.405 390.063 240.888 391.609C240.321 391.997 240.12 391.99 239.433 392.009C229.401 392.305 215.343 391.553 205.628 393.083C197.631 392.841 192.36 394.069 184.85 391.093C187.472 390.86 189.98 391.143 192.558 391.03C202.17 390.608 211.638 390.526 221.283 390.098Z" fill="#4593D7"/>
<path d="M25.1373 145.458C25.3275 145.481 26.0869 145.56 26.1817 145.633C29.4577 148.152 47.1647 157.644 45.3961 162.002L44.5879 162.277C40.3862 159.307 36.091 156.471 31.7088 153.774C29.086 152.19 26.0258 150.456 23.4037 148.798C22.9747 148.526 23.0856 147.916 23.0906 147.449C23.5571 146.404 24.1558 146.149 25.1373 145.458Z" fill="#4593D7"/>
<path d="M103.797 101.856L104.08 101.828C105.336 101.72 106.483 101.623 107.474 102.462C107.255 104.971 100.896 104.552 98.7349 105.49C90.077 109.25 86.1953 113.131 76.4026 111.846C74.2202 111.446 72.6501 111.083 70.507 110.499C74.4571 109.943 80.8002 110.211 84.4514 108.947C93.2759 105.893 94.0907 103.193 103.797 101.856Z" fill="black"/>
<path d="M17.207 170.425C20.4587 170.521 34.6106 175.259 35.8119 177.971C35.6698 179.082 35.908 178.631 35.084 179.374L34.0115 179.242C30.7396 177.97 27.6129 176.712 24.2371 175.718C21.3151 174.858 15.6205 175.698 14.3196 172.705C14.7345 171.036 15.6737 170.844 17.207 170.425Z" fill="#4593D7"/>
<path d="M128.843 365.16C131.338 363.976 138.597 365.078 142.292 364.628C144.191 364.395 149.44 363.192 150.157 363.201L150.555 363.598C149.551 368.811 134.992 368.77 130.755 368.392C130.422 368.326 129.834 368.048 129.523 367.919C128.782 367.031 128.907 366.395 128.843 365.16Z" fill="black"/>
<path d="M11.0827 195.1C16.5275 194.684 26.7899 195.314 32.3708 196.153C33.2272 196.282 33.2168 196.608 33.5201 197.214C33.0146 197.802 32.9132 197.759 32.1755 198.061C26.2938 198.101 17.2847 199.623 11.4543 198.42C10.7312 198.271 10.5371 197.503 10.3478 196.956C10.4924 195.946 10.4433 195.962 11.0827 195.1Z" fill="#4593D7"/>
<path d="M134.278 373.261C135.792 372.725 137.217 372.574 138.811 372.474C143.582 372.171 148.164 371.252 152.876 370.505C153.96 373.639 142.363 375.749 140.36 376.042C139.306 376.193 138.251 376.338 137.195 376.473C135.849 376.489 135.423 376.571 134.451 375.743C133.968 374.713 134.108 374.451 134.278 373.261Z" fill="black"/>
<path d="M102.259 126.656C105.339 126.409 114.307 128.919 113.792 132.639C112.765 133.001 112.817 132.79 111.535 132.48C109.416 131.754 106.926 130.694 104.651 130.745C102.857 130.785 99.0275 132.131 98.8284 129.601C99.7031 127.617 100.277 127.545 102.259 126.656Z" fill="black"/>
<path d="M28.0577 215.86C29.7916 215.596 31.1822 215.495 32.8247 216.144L32.9876 216.634C31.6773 218.034 24.9489 220.092 22.4427 221.244C20.7242 221.786 18.4039 222.279 17.0611 220.708C16.7729 217.226 25.3814 216.328 28.0577 215.86Z" fill="#4593D7"/>
<path d="M181.574 349.098L182.602 349.454C184.096 351.341 182.571 352.591 182.757 354.449C183.032 357.199 190.369 355.885 190.512 359.085C190.055 359.866 189.868 359.873 189.079 360.32C180.564 359.599 177.284 357.86 181.574 349.098Z" fill="black"/>
<path d="M210.05 353.397L210.63 353.533L210.911 354.04C210.419 355.054 207.471 356.478 206.126 357.574C203.1 360.033 200.712 363.828 197.354 365.601C196.566 364.987 196.413 364.968 195.983 364.055C196.306 360.09 206.17 354.453 210.05 353.397Z" fill="black"/>
<path d="M214.146 358.685C215.117 358.767 215.163 358.707 216.008 359.249L216.058 359.869C210.878 363.394 208.036 366.549 203.84 371.122C202.811 371.078 202.825 371.138 201.975 370.474C201.118 367 211.277 360.011 214.146 358.685Z" fill="black"/>
<path d="M219.963 382.589C221.362 382.744 221.74 382.744 223.142 382.608C224.976 384.032 237.675 383.323 241.748 384.671C241.389 384.98 216.305 386 213.539 385.818C215.052 385.477 216.219 385.739 217.105 384.892L216.556 383.764C217.99 383.455 218.734 383.405 219.963 382.589Z" fill="#4593D7"/>
<path d="M181.98 362.402C182.183 362.411 182.385 362.424 182.586 362.439C184.203 362.587 184.669 363.561 185.731 364.846C188.606 365.264 193.817 364.896 195.368 365.611C196.052 366.534 195.876 366.115 195.844 367.428C191.52 368.773 189.149 368.382 184.654 367.686C182.515 365.781 181.72 365.318 181.98 362.402Z" fill="black"/>
<path d="M86.6867 134.268C88.493 134.059 92.587 133.745 93.6598 135.428C92.4862 137.669 87.3358 137.656 84.8866 138.878C83.7511 139.62 81.9996 141.152 80.8739 140.075C81.0342 137.224 84.2753 135.176 86.6867 134.268Z" fill="black"/>
<path d="M141.521 379.534C143.867 379.216 146.682 378.804 149.01 378.52C150.981 378.278 156.005 376.426 157.225 376.829C156.778 380.054 147.194 382.079 144.4 382.571C142.472 382.149 142.167 381.292 141.521 379.534Z" fill="black"/>
<path d="M251.084 202.785C253.537 202.468 254.476 203.473 256.129 203.099C257.578 204.606 259.027 206.323 260.413 207.907C259.585 209.634 259.667 210.285 258.341 211.577L258.136 211.574C257.61 210.945 256.347 209.778 255.711 209.156L253.94 207.144L251.084 202.785Z" fill="black"/>
<path d="M118.386 93.4104C122.834 93.5704 124.774 101.605 123.985 105.31C122.833 105.622 122.43 105.839 121.301 105.617C120.163 104.353 121.107 102.902 120.672 100.843C120.151 98.3821 118.606 95.7989 118.386 93.4104Z" fill="black"/>
<path d="M34.752 241.955C35.1684 242.025 35.4078 242.223 35.8129 242.443C36.1297 243.288 36.0661 242.834 35.781 243.858C34.1467 245.549 29.6508 247.294 27.2466 247.36C26.3612 246.724 25.9521 246.387 25.9477 245.319C27.3783 243.562 32.4024 242.601 34.752 241.955Z" fill="#4593D7"/>
<path d="M243.975 160.052C246.466 159.879 254.501 161.024 252.558 164.902C249.978 164.062 244.416 163.928 243.222 162.108C243.241 161.018 243.37 160.93 243.975 160.052Z" fill="black"/>
<path d="M200.227 384.895C203.286 384.246 212.554 384.129 216.556 383.764L217.104 384.891C216.218 385.739 215.052 385.477 213.539 385.817C211.113 385.94 207.469 385.811 204.954 385.792C203.254 385.836 197.707 386.22 196.51 385.66C197.42 384.929 199.118 384.876 200.227 384.895Z" fill="#4593D7"/>
<path d="M204.954 385.792C203.254 385.836 197.707 386.221 196.51 385.66C197.42 384.929 199.118 384.876 200.227 384.895L200.443 385.31C201.912 385.458 203.501 385.591 204.954 385.792Z" fill="#709AF4"/>
<path d="M207.972 377.115C208.537 377.704 208.361 378.079 208.148 378.681C205.531 380.681 199.486 380.583 196.123 380.725C195.767 379.959 195.887 380.366 196.017 379.402C196.886 378.388 204.785 377.931 207.442 377.254L207.972 377.115Z" fill="black"/>
<path d="M118.446 112.724C119.166 112.709 119.353 112.878 120.058 113.151L120.269 113.839C119.519 116.752 115.769 117.83 113.116 117.97C112.528 117.602 112.264 117.376 111.729 116.951L111.664 116.383C113.488 115.089 115.231 115.002 117.996 113.045L118.446 112.724Z" fill="black"/>
<path d="M120.249 119.936C121.274 120.153 121.368 120.084 122.114 120.843C122.152 123.321 118.544 124.469 116.551 124.851C115.451 124.361 114.801 124.073 114.698 122.805C116.221 121.642 117.161 122.396 119.879 120.235L120.249 119.936Z" fill="black"/>
<path d="M65.8467 122.708C67.3495 122.861 71.8573 124.717 72.9547 126.016C73.2769 126.397 73.046 127.11 72.9735 127.735C69.7426 128.204 66.1519 126 65.8467 122.708Z" fill="black"/>
<path d="M65.4738 129.683C66.5346 129.798 69.5076 130.953 70.5001 131.471C71.622 132.056 71.5159 132.215 71.7934 133.183C68.8367 134.09 65.951 132.972 65.4738 129.683Z" fill="black"/>
<path d="M247.912 173.271C249.219 173.597 249.547 173.573 250.359 174.569C250.8 175.865 250.504 176.697 250.258 178.061C249.446 178.216 249.474 178.253 248.674 178.088C247.786 176.974 247.953 174.776 247.912 173.271Z" fill="black"/>
<path d="M284.096 159.831L284.88 160.04C286.392 161.487 283.881 163.501 282.789 164.641C282.234 164.576 282.149 164.508 281.617 164.328L281.469 163.687C281.944 162.205 283.081 161.064 284.096 159.831Z" fill="black"/>
<path d="M43.5438 136.131C46.2383 136.796 46.0743 138.506 45.3552 140.663C43.8606 140.643 43.6534 140.733 42.8852 139.431C42.8272 137.957 43.0663 137.53 43.5438 136.131Z" fill="#4593D7"/>
<path d="M88.4716 147.942C89.4739 147.994 89.5202 147.931 90.4122 148.452C90.9968 149.337 90.7851 150.307 90.7174 151.398C89.6799 151.374 89.6336 151.436 88.6761 150.958C88.1085 149.734 88.3617 149.406 88.4716 147.942Z" fill="black"/>
<path d="M102.275 142.119C103.277 142.172 103.323 142.109 104.215 142.63C104.8 143.515 104.588 144.485 104.521 145.576C103.483 145.552 103.437 145.614 102.479 145.136C101.912 143.911 102.165 143.584 102.275 142.119Z" fill="black"/>
</svg>
